<svg width="40" height="40" viewBox="0 0 40 40" fill="none" xmlns="http://www.w3.org/2000/svg">
<path opacity="0.2" d="M20.3508 34.9959C23.0933 34.9323 25.7658 34.1178 28.0777 32.6412C30.3896 31.1645 32.2524 29.0822 33.4633 26.6208L33.4631 26.6206L24.9808 21.4037C24.8321 21.3122 24.666 21.2529 24.493 21.2296L20.9275 20.749C20.6598 20.7129 20.3876 20.7645 20.1517 20.8961C19.9157 21.0277 19.7288 21.2322 19.6188 21.479L17.4784 26.2818C17.3788 26.5052 17.347 26.7528 17.3868 26.9941C17.4266 27.2354 17.5363 27.4597 17.7023 27.6392L20.6398 30.8165C20.7729 30.9606 20.8703 31.1339 20.9241 31.3226C20.9778 31.5112 20.9864 31.7099 20.9492 31.9025L20.3508 34.9957L20.3508 34.9959Z" fill="#032715"/>
<path opacity="0.2" d="M9.67233 12.3826L10.9783 9.29441C12.6663 7.87413 14.6664 6.8712 16.8166 6.36845C18.9043 5.88032 21.0742 5.87758 23.1599 6.35801L24.4069 8.59167C24.4345 8.64107 24.4445 8.69835 24.4353 8.75415L25.422 8.91663L24.4353 8.75416C24.4261 8.80997 24.3983 8.86102 24.3563 8.89896L20.1515 12.7017C20.1372 12.7146 20.1215 12.7258 20.1047 12.7351L18.1919 13.7914C18.1549 13.8119 18.1133 13.8226 18.071 13.8226H14.7358C14.2931 13.8226 13.8602 13.9532 13.4914 14.198L14.0445 15.0312L13.4914 14.198C13.1225 14.4429 12.8341 14.7911 12.6623 15.1991L11.6828 17.5244L11.6455 17.5163C11.6045 17.5075 11.5664 17.4886 11.5347 17.4612C11.503 17.4338 11.4786 17.3989 11.4639 17.3596L9.66848 12.5677C9.64603 12.5078 9.64741 12.4416 9.67233 12.3826Z" fill="#032715" stroke="#032715" stroke-width="2"/>
<path d="M20 35C28.2843 35 35 28.2843 35 20C35 11.7157 28.2843 5 20 5C11.7157 5 5 11.7157 5 20C5 28.2843 11.7157 35 20 35Z" stroke="#032715" stroke-width="2" stroke-linecap="round" stroke-linejoin="round"/>
<path d="M33.4631 26.6206L24.9808 21.4037C24.8321 21.3122 24.666 21.2529 24.493 21.2296L20.9275 20.749C20.6598 20.7129 20.3876 20.7645 20.1517 20.8961C19.9157 21.0277 19.7288 21.2322 19.6188 21.479L17.4784 26.2818C17.3788 26.5052 17.347 26.7528 17.3868 26.9941C17.4266 27.2354 17.5363 27.4597 17.7023 27.6392L20.6398 30.8165C20.7729 30.9606 20.8703 31.1339 20.9241 31.3226C20.9778 31.5112 20.9864 31.7099 20.9492 31.9025L20.3508 34.9957" stroke="#032715" stroke-width="2" stroke-linecap="round" stroke-linejoin="round"/>
<path d="M10.1488 8.68848L8.75131 11.9931C8.6267 12.2878 8.61981 12.619 8.73205 12.9186L10.5275 17.7105C10.601 17.9067 10.7227 18.0813 10.8813 18.2182C11.04 18.3551 11.2305 18.45 11.4354 18.494L14.7838 19.2137C14.9696 19.2536 15.1438 19.3354 15.2933 19.4528C15.4427 19.5702 15.5635 19.7201 15.6463 19.8911L16.2409 21.1196C16.3432 21.331 16.503 21.5093 16.702 21.634C16.901 21.7588 17.1311 21.825 17.366 21.825H19.4648" stroke="#032715" stroke-width="2" stroke-linecap="round" stroke-linejoin="round"/>
<path d="M23.8217 5.49219L25.2801 8.10444C25.4179 8.35138 25.468 8.63779 25.422 8.91685C25.3761 9.19592 25.2368 9.45116 25.0271 9.64087L20.8222 13.4436C20.7509 13.5081 20.6723 13.5642 20.5881 13.6107L18.6753 14.667C18.4903 14.7692 18.2824 14.8228 18.071 14.8228H14.7358C14.4899 14.8228 14.2494 14.8954 14.0445 15.0314C13.8395 15.1674 13.6793 15.3609 13.5838 15.5876L12.2827 18.6764" stroke="#032715" stroke-width="1.5" stroke-linecap="round" stroke-linejoin="round"/>
</svg>
