<svg width="25" height="25" viewBox="0 0 25 25" fill="none" xmlns="http://www.w3.org/2000/svg">
<path d="M12.5 13.9897C12.9268 13.9897 13.3494 13.9057 13.7437 13.7424C14.138 13.579 14.4963 13.3396 14.7981 13.0378C15.0999 12.7361 15.3393 12.3778 15.5026 11.9835C15.6659 11.5892 15.75 11.1665 15.75 10.7397C15.75 10.313 15.6659 9.89033 15.5026 9.49603C15.3393 9.10172 15.0999 8.74344 14.7981 8.44165C14.4963 8.13986 14.138 7.90047 13.7437 7.73714C13.3494 7.57381 12.9268 7.48975 12.5 7.48975C11.638 7.48975 10.8114 7.83216 10.2019 8.44165C9.59241 9.05114 9.25 9.87779 9.25 10.7397C9.25 11.6017 9.59241 12.4284 10.2019 13.0378C10.8114 13.6473 11.638 13.9897 12.5 13.9897Z" stroke="#0A0F29" stroke-width="1.5"/>
<path d="M3.77094 8.84391C5.82302 -0.176918 19.1876 -0.166501 21.2293 8.85433C22.4272 14.146 19.1355 18.6252 16.2501 21.396C15.2418 22.3684 13.8957 22.9118 12.4949 22.9118C11.0941 22.9118 9.74794 22.3684 8.73969 21.396C5.86469 18.6252 2.57302 14.1356 3.77094 8.84391Z" stroke="#0A0F29" stroke-width="1.5"/>
</svg>
