<svg width="25" height="25" viewBox="0 0 25 25" fill="none" xmlns="http://www.w3.org/2000/svg">
<rect width="25" height="25" rx="12.5" fill="white"/>
<path d="M12.5 2.25234C15.8376 2.25234 16.2329 2.26504 17.551 2.3251C18.7697 2.38076 19.4316 2.58437 19.8722 2.75557C20.4556 2.98232 20.872 3.25322 21.3094 3.69062C21.7469 4.12803 22.0177 4.54443 22.2444 5.12783C22.4156 5.56836 22.6192 6.23027 22.6749 7.44893C22.735 8.76709 22.7477 9.1624 22.7477 12.5C22.7477 15.8377 22.735 16.233 22.6749 17.5511C22.6192 18.7698 22.4156 19.4316 22.2444 19.8722C22.0177 20.4556 21.7468 20.8721 21.3094 21.3095C20.872 21.7469 20.4556 22.0178 19.8722 22.2444C19.4316 22.4156 18.7697 22.6193 17.551 22.6749C16.2331 22.7351 15.8378 22.7478 12.5 22.7478C9.16211 22.7478 8.7668 22.7351 7.44893 22.6749C6.23018 22.6192 5.56836 22.4156 5.12783 22.2444C4.54443 22.0178 4.12793 21.7469 3.69053 21.3095C3.25312 20.872 2.98223 20.4556 2.75557 19.8722C2.58437 19.4317 2.38066 18.7698 2.3251 17.5511C2.26494 16.233 2.25225 15.8377 2.25225 12.5C2.25225 9.1624 2.26494 8.76709 2.3251 7.44902C2.38076 6.23027 2.58437 5.56836 2.75557 5.12783C2.98223 4.54443 3.25312 4.12803 3.69053 3.69062C4.12803 3.25312 4.54443 2.98232 5.12783 2.75557C5.56826 2.58437 6.23018 2.38076 7.44893 2.3251C8.76699 2.26504 9.1623 2.25234 12.5 2.25234ZM12.5 0C9.10518 0 8.67949 0.0143555 7.34629 0.0751953C6.01572 0.135937 5.10703 0.347266 4.31201 0.65625C3.48994 0.975684 2.79287 1.40312 2.09795 2.09805C1.40303 2.79297 0.975684 3.49004 0.65625 4.31201C0.347168 5.10713 0.135937 6.01582 0.0751953 7.34629C0.0143555 8.67949 0 9.10518 0 12.5C0 15.8948 0.0143555 16.3205 0.0751953 17.6537C0.135937 18.9843 0.347168 19.893 0.65625 20.688C0.975586 21.51 1.40303 22.2071 2.09795 22.9021C2.79287 23.597 3.48994 24.0243 4.31201 24.3438C5.10713 24.6528 6.01572 24.8641 7.34619 24.9248C8.67949 24.9856 9.10518 25 12.5 25C15.8948 25 16.3205 24.9856 17.6537 24.9248C18.9842 24.8641 19.8929 24.6528 20.6879 24.3438C21.51 24.0244 22.207 23.597 22.902 22.9021C23.5969 22.2071 24.0243 21.5101 24.3438 20.688C24.6527 19.8929 24.8641 18.9843 24.9248 17.6538C24.9856 16.3205 25 15.8948 25 12.5C25 9.10518 24.9856 8.67949 24.9248 7.34629C24.8641 6.01582 24.6527 5.10713 24.3438 4.31211C24.0243 3.49004 23.5969 2.79297 22.902 2.09805C22.207 1.40312 21.51 0.975586 20.688 0.65625C19.8929 0.347266 18.9842 0.135937 17.6537 0.0751953C16.3205 0.0143555 15.8948 0 12.5 0ZM12.5 6.08105C8.95488 6.08105 6.08105 8.95508 6.08105 12.5C6.08105 16.0451 8.95488 18.9189 12.5 18.9189C16.045 18.9189 18.9189 16.0451 18.9189 12.5C18.9189 8.95498 16.045 6.08105 12.5 6.08105ZM12.5 16.6667C10.1988 16.6667 8.3333 14.8012 8.3333 12.5C8.3333 10.1988 10.1988 8.3333 12.5 8.3333C14.8012 8.3333 16.6667 10.1988 16.6667 12.5C16.6667 14.8012 14.8012 16.6667 12.5 16.6667ZM20.6725 5.82744C20.6725 6.65596 20.001 7.32744 19.1725 7.32744C18.344 7.32744 17.6725 6.65596 17.6725 5.82744C17.6725 4.99902 18.344 4.32744 19.1725 4.32744C20.001 4.32744 20.6725 4.99902 20.6725 5.82744Z" fill="#0A0A08"/>
</svg>
