<svg width="25" height="25" viewBox="0 0 25 25" fill="none" xmlns="http://www.w3.org/2000/svg">
<path d="M8.85433 19.7918H8.3335C4.16683 19.7918 2.0835 18.7502 2.0835 13.5418V8.3335C2.0835 4.16683 4.16683 2.0835 8.3335 2.0835H16.6668C20.8335 2.0835 22.9168 4.16683 22.9168 8.3335V13.5418C22.9168 17.7085 20.8335 19.7918 16.6668 19.7918H16.146C15.8231 19.7918 15.5106 19.9481 15.3127 20.2085L13.7502 22.2918C13.0627 23.2085 11.9377 23.2085 11.2502 22.2918L9.68766 20.2085C9.521 19.9793 9.13558 19.7918 8.85433 19.7918Z" stroke="#0A0F29" stroke-width="1.5" stroke-miterlimit="10" stroke-linecap="round" stroke-linejoin="round"/>
<path d="M16.6625 11.4585H16.6729M12.4948 11.4585H12.5052M8.32812 11.4585H8.33646" stroke="#0A0F29" stroke-width="2" stroke-linecap="round" stroke-linejoin="round"/>
</svg>
