<svg width="49" height="49" viewBox="0 0 49 49" fill="none" xmlns="http://www.w3.org/2000/svg">
<rect width="48" height="48" transform="translate(0.5 0.5)" fill="#CCDAD1"/>
<path d="M41 38H32C30.8065 38 29.6619 38.4741 28.818 39.318C27.9741 40.1619 27.5 41.3065 27.5 42.5V45.5H30.5V42.5C30.5 42.1022 30.658 41.7206 30.9393 41.4393C31.2206 41.158 31.6022 41 32 41H41C41.3978 41 41.7794 41.158 42.0607 41.4393C42.342 41.7206 42.5 42.1022 42.5 42.5V45.5H45.5V42.5C45.5 41.3065 45.0259 40.1619 44.182 39.318C43.3381 38.4741 42.1935 38 41 38ZM30.5 30.5C30.5 31.6867 30.8519 32.8467 31.5112 33.8334C32.1705 34.8201 33.1075 35.5892 34.2039 36.0433C35.3003 36.4974 36.5067 36.6162 37.6705 36.3847C38.8344 36.1532 39.9035 35.5818 40.7426 34.7426C41.5818 33.9035 42.1532 32.8344 42.3847 31.6705C42.6162 30.5067 42.4974 29.3003 42.0433 28.2039C41.5892 27.1075 40.8201 26.1705 39.8334 25.5112C38.8467 24.8519 37.6867 24.5 36.5 24.5C34.9087 24.5 33.3826 25.1321 32.2574 26.2574C31.1321 27.3826 30.5 28.9087 30.5 30.5ZM39.5 30.5C39.5 31.0933 39.3241 31.6734 38.9944 32.1667C38.6648 32.6601 38.1962 33.0446 37.6481 33.2716C37.0999 33.4987 36.4967 33.5581 35.9147 33.4424C35.3328 33.3266 34.7982 33.0409 34.3787 32.6213C33.9591 32.2018 33.6734 31.6672 33.5576 31.0853C33.4419 30.5033 33.5013 29.9001 33.7284 29.352C33.9554 28.8038 34.3399 28.3352 34.8333 28.0056C35.3266 27.676 35.9067 27.5 36.5 27.5C37.2957 27.5 38.0587 27.8161 38.6213 28.3787C39.1839 28.9413 39.5 29.7044 39.5 30.5ZM9.5 32V30.5H6.5V32C6.5 34.7848 7.60625 37.4555 9.57538 39.4246C11.5445 41.3938 14.2152 42.5 17 42.5H21.5V39.5H17C15.0109 39.5 13.1032 38.7098 11.6967 37.3033C10.2902 35.8968 9.5 33.9891 9.5 32ZM29 15.5H39.5V18.5H29V15.5ZM29 9.5H44V12.5H29V9.5ZM29 3.5H44V6.5H29V3.5ZM17 17H8C6.80653 17 5.66193 17.4741 4.81802 18.318C3.97411 19.1619 3.5 20.3065 3.5 21.5V24.5H6.5V21.5C6.5 21.1022 6.65804 20.7206 6.93934 20.4393C7.22064 20.158 7.60218 20 8 20H17C17.3978 20 17.7794 20.158 18.0607 20.4393C18.342 20.7206 18.5 21.1022 18.5 21.5V24.5H21.5V21.5C21.5 20.3065 21.0259 19.1619 20.182 18.318C19.3381 17.4741 18.1935 17 17 17ZM12.5 15.5C13.6867 15.5 14.8467 15.1481 15.8334 14.4888C16.8201 13.8295 17.5892 12.8925 18.0433 11.7961C18.4974 10.6997 18.6162 9.49335 18.3847 8.32946C18.1532 7.16558 17.5818 6.09648 16.7426 5.25736C15.9035 4.41825 14.8344 3.8468 13.6705 3.61529C12.5067 3.38378 11.3003 3.5026 10.2039 3.95673C9.10754 4.41085 8.17047 5.17989 7.51118 6.16658C6.85189 7.15328 6.5 8.31332 6.5 9.5C6.5 11.0913 7.13214 12.6174 8.25736 13.7426C9.38258 14.8679 10.9087 15.5 12.5 15.5ZM12.5 6.5C13.0933 6.5 13.6734 6.67595 14.1667 7.00559C14.6601 7.33524 15.0446 7.80377 15.2716 8.35195C15.4987 8.90013 15.5581 9.50333 15.4424 10.0853C15.3266 10.6672 15.0409 11.2018 14.6213 11.6213C14.2018 12.0409 13.6672 12.3266 13.0853 12.4424C12.5033 12.5581 11.9001 12.4987 11.3519 12.2716C10.8038 12.0446 10.3352 11.6601 10.0056 11.1667C9.67595 10.6734 9.5 10.0933 9.5 9.5C9.5 8.70435 9.81607 7.94129 10.3787 7.37868C10.9413 6.81607 11.7044 6.5 12.5 6.5Z" fill="#0A0F29"/>
</svg>
