<svg width="48" height="49" viewBox="0 0 48 49" fill="none" xmlns="http://www.w3.org/2000/svg">
<rect width="48" height="48" transform="translate(0 0.5)" fill="#CCDAD1"/>
<path d="M42 26V33.5H6V9.5H21V6.5H6C5.20435 6.5 4.44129 6.81607 3.87868 7.37868C3.31607 7.94129 3 8.70435 3 9.5V33.5C3 34.2956 3.31607 35.0587 3.87868 35.6213C4.44129 36.1839 5.20435 36.5 6 36.5H18V42.5H12V45.5H36V42.5H30V36.5H42C42.7957 36.5 43.5587 36.1839 44.1213 35.6213C44.6839 35.0587 45 34.2956 45 33.5V26H42ZM27 42.5H21V36.5H27V42.5Z" fill="#0A0F29"/>
<path d="M45 15.5V12.5H41.8485C41.655 11.561 41.2822 10.6682 40.7505 9.8705L42.9855 7.6355L40.8645 5.5145L38.6295 7.7495C37.8318 7.21777 36.939 6.84495 36 6.6515V3.5H33V6.6515C32.061 6.84495 31.1682 7.21777 30.3705 7.7495L28.1355 5.5145L26.0145 7.6355L28.2495 9.8705C27.7178 10.6682 27.345 11.561 27.1515 12.5H24V15.5H27.1515C27.345 16.439 27.7178 17.3318 28.2495 18.1295L26.0145 20.3645L28.1355 22.4855L30.3705 20.2505C31.1682 20.7822 32.061 21.155 33 21.3485V24.5H36V21.3485C36.939 21.155 37.8318 20.7822 38.6295 20.2505L40.8645 22.4855L42.9855 20.3645L40.7505 18.1295C41.2822 17.3318 41.655 16.439 41.8485 15.5H45ZM34.5 18.5C33.61 18.5 32.74 18.2361 31.9999 17.7416C31.2599 17.2471 30.6831 16.5443 30.3425 15.7221C30.0019 14.8998 29.9128 13.995 30.0865 13.1221C30.2601 12.2492 30.6887 11.4474 31.318 10.818C31.9474 10.1887 32.7492 9.7601 33.6221 9.58647C34.495 9.41283 35.3998 9.50195 36.2221 9.84254C37.0443 10.1831 37.7471 10.7599 38.2416 11.4999C38.7361 12.24 39 13.11 39 14C38.9988 15.1931 38.5243 16.337 37.6807 17.1807C36.837 18.0243 35.6931 18.4988 34.5 18.5Z" fill="#0A0F29"/>
</svg>
