<svg width="48" height="48" viewBox="0 0 48 48" fill="none" xmlns="http://www.w3.org/2000/svg">
<rect width="48" height="48" fill="#CCDAD1"/>
<path d="M6 30V33H11.379L3 41.379L5.121 43.5L13.5 35.121V40.5H16.5V30H6ZM28.5 15H39V18H28.5V15ZM28.5 22.5H39V25.5H28.5V22.5ZM28.5 30H39V33H28.5V30Z" fill="#0A0F29"/>
<path d="M42 7.5H6C5.20459 7.50079 4.44199 7.81712 3.87956 8.37956C3.31712 8.94199 3.00079 9.70459 3 10.5V25.5H6V10.5H22.5V40.5H42C42.7954 40.4992 43.558 40.1829 44.1204 39.6204C44.6829 39.058 44.9992 38.2954 45 37.5V10.5C44.9992 9.70459 44.6829 8.94199 44.1204 8.37956C43.558 7.81712 42.7954 7.50079 42 7.5ZM25.5 37.5V10.5H42L42.003 37.5H25.5Z" fill="#0A0F29"/>
</svg>
