<svg width="23" height="23" viewBox="0 0 23 23" fill="none" xmlns="http://www.w3.org/2000/svg">
<path d="M19.3126 0.5625H22.4376V3.6875H19.3126V0.5625ZM19.3126 5.25H22.4376V8.375H19.3126V5.25ZM14.6251 0.5625H17.7501V3.6875H14.6251V0.5625ZM14.6251 5.25H17.7501V8.375H14.6251V5.25ZM18.5313 22.4375H18.3985C3.04693 21.5547 0.867246 8.60156 0.562558 4.64844C0.514938 4.02871 0.715436 3.41544 1.11995 2.94353C1.52447 2.47162 2.09987 2.17972 2.71959 2.13203C2.78157 2.12734 2.84381 2.125 2.90631 2.125H7.0235C7.33643 2.1247 7.64225 2.21837 7.90133 2.39388C8.16042 2.56939 8.36083 2.81865 8.47662 3.10938L9.66412 6.03125C9.77846 6.31527 9.80683 6.62662 9.74572 6.92663C9.6846 7.22664 9.5367 7.50209 9.32037 7.71875L7.65631 9.39844C7.91518 10.876 8.62223 12.2383 9.68157 13.3004C10.7409 14.3625 12.1013 15.0732 13.5782 15.3359L15.2735 13.6562C15.4934 13.4423 15.7715 13.2979 16.0729 13.2409C16.3744 13.1839 16.686 13.217 16.9688 13.3359L19.9141 14.5156C20.2005 14.6351 20.4448 14.837 20.6159 15.0958C20.787 15.3546 20.8773 15.6585 20.8751 15.9687V20.0938C20.8751 20.7154 20.6281 21.3115 20.1886 21.751C19.7491 22.1906 19.1529 22.4375 18.5313 22.4375ZM2.90631 3.6875C2.80371 3.68719 2.70206 3.70709 2.60716 3.74607C2.51225 3.78505 2.42596 3.84234 2.35319 3.91466C2.28043 3.98699 2.22263 4.07294 2.18308 4.16761C2.14353 4.26228 2.12302 4.36381 2.12271 4.46641C2.12271 4.48828 2.12271 4.50937 2.12506 4.53125C2.48443 9.15625 4.78912 20.0938 18.4844 20.875C18.6912 20.8874 18.8944 20.8172 19.0494 20.6797C19.2044 20.5423 19.2985 20.349 19.311 20.1422L19.3126 20.0938V15.9687L16.3672 14.7891L14.1251 17.0156L13.7501 16.9688C6.95318 16.1172 6.03131 9.32031 6.03131 9.25L5.98443 8.875L8.20318 6.63281L7.03131 3.6875H2.90631Z" fill="#0A0F29"/>
</svg>
