<svg width="27" height="25" viewBox="0 0 27 25" fill="none" xmlns="http://www.w3.org/2000/svg">
<path d="M14.735 8.78268L9.61614 1.28068L9.46726 1.0625H9.20313H2.875H1.92866L2.46195 1.84427L10.5434 13.6909L2.49483 23.1127L1.79028 23.9375H2.875H4.75H4.98053L5.13023 23.7622L11.9587 15.7658L17.3854 23.7193L17.5343 23.9375H17.7984H24.1266H25.073L24.5396 23.1557L16.1504 10.859L23.813 1.88722L24.5174 1.0625H23.4328H21.5578H21.3273L21.1776 1.23782L14.735 8.78268ZM13.3655 13.5462L13.3654 13.5461L12.5248 12.3352L6.38075 3.48438H8.04307L13.2908 11.046L13.2908 11.0461L14.1314 12.257L14.1315 12.257L20.6037 21.5812H18.9413L13.3655 13.5462Z" fill="#0A0A08" stroke="white"/>
</svg>
